ffmpeg started on 2016-12-05 at 10:13:44
Report written to "Output/x264/results/ffmpeg/crowd_run_2160p50faster500k.log"
Command line:
Tools/ffmpeg/ffmpeg -benchmark -y -i Input/y4m/crowd_run_2160p50.y4m -c:v libx264 -preset faster -b:v 500k -an Output/x264/encoded/crowd_run_2160p50faster500k.mkv
ffmpeg version N-82227-gdb23fde Copyright (c) 2000-2016 the FFmpeg developers
  built with gcc 5.4.0 (Ubuntu 5.4.0-6ubuntu1~16.04.2) 20160609
  configuration: --prefix=/home/jaroslav/ffmpeg_build --pkg-config-flags=--static --extra-cflags=-I/home/jaroslav/ffmpeg_build/include --extra-ldflags=-L/home/jaroslav/ffmpeg_build/lib --bindir=/home/jaroslav/bin --enable-gpl --enable-libass --enable-libfdk-aac --enable-libfreetype --enable-libmp3lame --enable-libopus --enable-libtheora --enable-libvorbis --enable-libvpx --enable-libx264 --enable-libx265 --enable-nvenc --enable-libmfx --enable-libxvid --enable-libgsm --enable-libopencore-amrnb --enable-version3 --enable-nonfree
  libavutil      55. 35.100 / 55. 35.100
  libavcodec     57. 66.101 / 57. 66.101
  libavformat    57. 57.100 / 57. 57.100
  libavdevice    57.  2.100 / 57.  2.100
  libavfilter     6. 66.100 /  6. 66.100
  libswscale      4.  3.100 /  4.  3.100
  libswresample   2.  4.100 /  2.  4.100
  libpostproc    54.  2.100 / 54.  2.100
Input #0, yuv4mpegpipe, from 'Input/y4m/crowd_run_2160p50.y4m':
  Duration: 00:00:10.00, start: 0.000000, bitrate: 4976642 kb/s
    Stream #0:0: Video: rawvideo (I420 / 0x30323449), yuv420p(progressive), 3840x2160, SAR 1:1 DAR 16:9, 50 fps, 50 tbr, 50 tbn, 50 tbc
[libx264 @ 0x36081c0] using SAR=1/1
[libx264 @ 0x36081c0] using cpu capabilities: MMX2 SSE2Fast SSSE3 SSE4.2 AVX FMA3 AVX2 LZCNT BMI2
[libx264 @ 0x36081c0] profile High, level 5.2
[libx264 @ 0x36081c0] 264 - core 148 - H.264/MPEG-4 AVC codec - Copyleft 2003-2016 - http://www.videolan.org/x264.html - options: cabac=1 ref=2 deblock=1:0:0 analyse=0x3:0x113 me=hex subme=4 psy=1 psy_rd=1.00:0.00 mixed_ref=0 me_range=16 chroma_me=1 trellis=1 8x8dct=1 cqm=0 deadzone=21,11 fast_pskip=1 chroma_qp_offset=0 threads=6 lookahead_threads=1 sliced_threads=0 nr=0 decimate=1 interlaced=0 bluray_compat=0 constrained_intra=0 bframes=3 b_pyramid=2 b_adapt=1 b_bias=0 direct=1 weightb=1 open_gop=0 weightp=1 keyint=250 keyint_min=25 scenecut=40 intra_refresh=0 rc_lookahead=20 rc=abr mbtree=1 bitrate=500 ratetol=1.0 qcomp=0.60 qpmin=0 qpmax=69 qpstep=4 ip_ratio=1.40 aq=1:1.00
Output #0, matroska, to 'Output/x264/encoded/crowd_run_2160p50faster500k.mkv':
  Metadata:
    encoder         : Lavf57.57.100
    Stream #0:0: Video: h264 (libx264) (H264 / 0x34363248), yuv420p, 3840x2160 [SAR 1:1 DAR 16:9], q=-1--1, 500 kb/s, 50 fps, 1k tbn, 50 tbc
    Metadata:
      encoder         : Lavc57.66.101 libx264
    Side data:
      cpb: bitrate max/min/avg: 0/0/500000 buffer size: 0 vbv_delay: -1
Stream mapping:
  Stream #0:0 -> #0:0 (rawvideo (native) -> h264 (libx264))
Press [q] to stop, [?] for help
frame=   19 fps=0.0 q=0.0 size=       0kB time=00:00:00.00 bitrate=N/A speed=   0x    frame=   27 fps= 15 q=0.0 size=       0kB time=00:00:00.00 bitrate=N/A speed=   0x    frame=   32 fps= 13 q=61.0 size=       1kB time=-00:00:00.01 bitrate=N/A speed=N/A    frame=   40 fps= 14 q=69.0 size=       1kB time=00:00:00.14 bitrate=  41.6kbits/s speed=0.048x    frame=   48 fps= 14 q=69.0 size=       1kB time=00:00:00.30 bitrate=  19.5kbits/s speed=0.0869x    frame=   57 fps= 14 q=69.0 size=       1kB time=00:00:00.48 bitrate=  12.2kbits/s speed=0.121x    frame=   66 fps= 15 q=69.0 size=       1kB time=00:00:00.66 bitrate=   8.9kbits/s speed=0.147x    frame=   75 fps= 15 q=69.0 size=       1kB time=00:00:00.84 bitrate=   7.0kbits/s speed=0.168x    frame=   84 fps= 15 q=69.0 size=       1kB time=00:00:01.02 bitrate=   5.7kbits/s speed=0.18x    frame=   93 fps= 15 q=69.0 size=       1kB time=00:00:01.20 bitrate=   4.9kbits/s speed=0.194x    frame=  102 fps= 15 q=69.0 size=       1kB time=00:00:01.38 bitrate=   4.2kbits/s speed=0.206x    frame=  111 fps= 15 q=69.0 size=       1kB time=00:00:01.56 bitrate=   3.8kbits/s speed=0.216x    frame=  120 fps= 15 q=69.0 size=       1kB time=00:00:01.74 bitrate=   3.4kbits/s speed=0.222x    frame=  129 fps= 15 q=69.0 size=       1kB time=00:00:01.92 bitrate=   3.1kbits/s speed=0.229x    frame=  138 fps= 16 q=69.0 size=       1kB time=00:00:02.10 bitrate=   2.8kbits/s speed=0.237x    frame=  147 fps= 16 q=69.0 size=       1kB time=00:00:02.28 bitrate=   2.6kbits/s speed=0.243x    frame=  153 fps= 15 q=69.0 size=       1kB time=00:00:02.40 bitrate=   2.4kbits/s speed=0.239x    frame=  164 fps= 15 q=69.0 size=       1kB time=00:00:02.62 bitrate=   2.2kbits/s speed=0.247x    frame=  173 fps= 16 q=69.0 size=       1kB time=00:00:02.80 bitrate=   2.1kbits/s speed=0.252x    frame=  182 fps= 16 q=69.0 size=       1kB time=00:00:02.98 bitrate=   2.0kbits/s speed=0.257x    frame=  191 fps= 16 q=69.0 size=       1kB time=00:00:03.16 bitrate=   1.9kbits/s speed=0.261x    frame=  200 fps= 16 q=69.0 size=       1kB time=00:00:03.34 bitrate=   1.8kbits/s speed=0.262x    frame=  209 fps= 16 q=69.0 size=       1kB time=00:00:03.52 bitrate=   1.7kbits/s speed=0.266x    frame=  218 fps= 16 q=69.0 size=       1kB time=00:00:03.70 bitrate=   1.6kbits/s speed=0.269x    frame=  227 fps= 16 q=69.0 size=       1kB time=00:00:03.88 bitrate=   1.5kbits/s speed=0.272x    frame=  236 fps= 16 q=69.0 size=       1kB time=00:00:04.06 bitrate=   1.4kbits/s speed=0.273x    frame=  245 fps= 16 q=69.0 size=       1kB time=00:00:04.24 bitrate=   1.4kbits/s speed=0.276x    frame=  254 fps= 16 q=69.0 size=       1kB time=00:00:04.42 bitrate=   1.3kbits/s speed=0.278x    frame=  259 fps= 16 q=69.0 size=       1kB time=00:00:04.52 bitrate=   1.3kbits/s speed=0.275x    frame=  267 fps= 16 q=69.0 size=       1kB time=00:00:04.68 bitrate=   1.3kbits/s speed=0.274x    frame=  276 fps= 16 q=66.0 size=       1kB time=00:00:04.86 bitrate=   1.2kbits/s speed=0.276x    frame=  277 fps= 15 q=69.0 size=       1kB time=00:00:04.88 bitrate=   1.2kbits/s speed=0.269x    frame=  286 fps= 15 q=69.0 size=     966kB time=00:00:05.06 bitrate=1562.9kbits/s speed=0.271x    frame=  295 fps= 15 q=69.0 size=     966kB time=00:00:05.24 bitrate=1509.2kbits/s speed=0.273x    frame=  301 fps= 15 q=69.0 size=     966kB time=00:00:05.36 bitrate=1475.4kbits/s speed=0.272x    frame=  310 fps= 15 q=69.0 size=     966kB time=00:00:05.54 bitrate=1427.5kbits/s speed=0.274x    frame=  319 fps= 15 q=69.0 size=     966kB time=00:00:05.72 bitrate=1382.6kbits/s speed=0.276x    frame=  328 fps= 15 q=69.0 size=     966kB time=00:00:05.90 bitrate=1340.4kbits/s speed=0.278x    frame=  337 fps= 16 q=69.0 size=     966kB time=00:00:06.08 bitrate=1300.7kbits/s speed=0.28x    frame=  346 fps= 15 q=69.0 size=     966kB time=00:00:06.26 bitrate=1263.3kbits/s speed=0.28x    frame=  355 fps= 16 q=69.0 size=     966kB time=00:00:06.44 bitrate=1228.0kbits/s speed=0.282x    frame=  364 fps= 16 q=69.0 size=     966kB time=00:00:06.62 bitrate=1194.6kbits/s speed=0.283x    frame=  373 fps= 16 q=69.0 size=     966kB time=00:00:06.80 bitrate=1163.0kbits/s speed=0.285x    frame=  382 fps= 16 q=69.0 size=     966kB time=00:00:06.98 bitrate=1133.0kbits/s speed=0.285x    frame=  391 fps= 16 q=69.0 size=     966kB time=00:00:07.16 bitrate=1104.5kbits/s speed=0.286x    frame=  400 fps= 16 q=69.0 size=     966kB time=00:00:07.34 bitrate=1077.5kbits/s speed=0.288x    frame=  409 fps= 16 q=69.0 size=     966kB time=00:00:07.52 bitrate=1051.7kbits/s speed=0.289x    frame=  413 fps= 16 q=69.0 size=     966kB time=00:00:07.60 bitrate=1040.6kbits/s speed=0.286x    frame=  422 fps= 16 q=69.0 size=     966kB time=00:00:07.78 bitrate=1016.5kbits/s speed=0.287x    frame=  431 fps= 16 q=69.0 size=     966kB time=00:00:07.96 bitrate= 993.5kbits/s speed=0.288x    frame=  440 fps= 16 q=69.0 size=     966kB time=00:00:08.14 bitrate= 971.6kbits/s speed=0.289x    frame=  449 fps= 16 q=69.0 size=     966kB time=00:00:08.32 bitrate= 950.6kbits/s speed=0.29x    frame=  458 fps= 16 q=69.0 size=     966kB time=00:00:08.50 bitrate= 930.4kbits/s speed=0.29x    frame=  464 fps= 16 q=69.0 size=     966kB time=00:00:08.62 bitrate= 917.5kbits/s speed=0.289x    frame=  473 fps= 16 q=69.0 size=     966kB time=00:00:08.80 bitrate= 898.7kbits/s speed=0.29x    frame=  481 fps= 16 q=69.0 size=     966kB time=00:00:08.96 bitrate= 882.7kbits/s speed=0.29x    frame=  489 fps= 16 q=69.0 size=     966kB time=00:00:09.12 bitrate= 867.2kbits/s speed=0.29x    frame=  498 fps= 16 q=69.0 size=     966kB time=00:00:09.30 bitrate= 850.4kbits/s speed=0.29x    frame=  500 fps= 15 q=-1.0 Lsize=    1843kB time=00:00:09.94 bitrate=1518.6kbits/s speed= 0.3x    
video:1839kB audio:0kB subtitle:0kB other streams:0kB global headers:0kB muxing overhead: 0.229461%
bench: utime=87.684s
bench: maxrss=1336328kB
[libx264 @ 0x36081c0] frame I:2     Avg QP:51.00  size: 22119
[libx264 @ 0x36081c0] frame P:126   Avg QP:51.00  size:  8687
[libx264 @ 0x36081c0] frame B:372   Avg QP:51.00  size:  1998
[libx264 @ 0x36081c0] consecutive B-frames:  0.8%  0.0%  0.0% 99.2%
[libx264 @ 0x36081c0] mb I  I16..4: 67.4% 32.6%  0.0%
[libx264 @ 0x36081c0] mb P  I16..4:  3.6%  0.5%  0.0%  P16..4: 13.0%  1.2%  0.3%  0.0%  0.0%    skip:81.4%
[libx264 @ 0x36081c0] mb B  I16..4:  0.0%  0.0%  0.0%  B16..8:  3.6%  0.0%  0.0%  direct: 0.0%  skip:96.4%  L0:46.0% L1:54.0% BI: 0.0%
[libx264 @ 0x36081c0] final ratefactor: 70.39
[libx264 @ 0x36081c0] 8x8 transform intra:18.6% inter:98.9%
[libx264 @ 0x36081c0] coded y,uvDC,uvAC intra: 1.5% 6.6% 0.0% inter: 0.0% 0.0% 0.0%
[libx264 @ 0x36081c0] i16 v,h,dc,p: 92%  6%  2%  0%
[libx264 @ 0x36081c0] i8 v,h,dc,ddl,ddr,vr,hd,vl,hu: 11%  9% 65%  3%  2%  2%  2%  2%  3%
[libx264 @ 0x36081c0] i8c dc,h,v,p: 100%  0%  0%  0%
[libx264 @ 0x36081c0] Weighted P-Frames: Y:1.6% UV:0.0%
[libx264 @ 0x36081c0] ref P L0: 55.8% 44.2%
[libx264 @ 0x36081c0] ref B L0: 74.5% 25.5%
[libx264 @ 0x36081c0] ref B L1: 86.6% 13.4%
[libx264 @ 0x36081c0] kb/s:1505.59
